<svg width="44" height="44" viewBox="0 0 44 44" fill="none" xmlns="http://www.w3.org/2000/svg">
<path d="M0 10C0 4.47716 4.47715 0 10 0H33.9931C39.5159 0 43.9931 4.47715 43.9931 10V33.9931C43.9931 39.5159 39.5159 43.9931 33.9931 43.9931H10C4.47716 43.9931 0 39.5159 0 33.9931V10Z" fill="#00B96B"/>
<g clip-path="url(#clip0_699_70685)">
<path d="M21.9964 30.3288C26.5988 30.3288 30.3298 26.5978 30.3298 21.9954C30.3298 17.3931 26.5988 13.6621 21.9964 13.6621C17.394 13.6621 13.6631 17.3931 13.6631 21.9954C13.6631 26.5978 17.394 30.3288 21.9964 30.3288Z" stroke="white" stroke-width="1.66667" stroke-linecap="round" stroke-linejoin="round"/>
<path d="M21.9966 26.9961C24.758 26.9961 26.9966 24.7575 26.9966 21.9961C26.9966 19.2347 24.758 16.9961 21.9966 16.9961C19.2352 16.9961 16.9966 19.2347 16.9966 21.9961C16.9966 24.7575 19.2352 26.9961 21.9966 26.9961Z" stroke="white" stroke-width="1.66667" stroke-linecap="round" stroke-linejoin="round"/>
<path d="M21.9967 23.6634C22.9172 23.6634 23.6634 22.9172 23.6634 21.9967C23.6634 21.0763 22.9172 20.3301 21.9967 20.3301C21.0763 20.3301 20.3301 21.0763 20.3301 21.9967C20.3301 22.9172 21.0763 23.6634 21.9967 23.6634Z" stroke="white" stroke-width="1.66667" stroke-linecap="round" stroke-linejoin="round"/>
</g>
<defs>
<clipPath id="clip0_699_70685">
<rect width="20" height="20" fill="white" transform="translate(11.9966 11.9961)"/>
</clipPath>
</defs>
</svg>
