<svg width="44" height="44" viewBox="0 0 44 44" fill="none" xmlns="http://www.w3.org/2000/svg">
<path d="M0 10C0 4.47716 4.47715 0 10 0H33.9931C39.5159 0 43.9931 4.47715 43.9931 10V33.9931C43.9931 39.5159 39.5159 43.9931 33.9931 43.9931H10C4.47716 43.9931 0 39.5159 0 33.9931V10Z" fill="#9810FA"/>
<g clip-path="url(#clip0_699_70699)">
<path d="M21.9966 16.1636C21.9976 15.8303 21.9319 15.5002 21.8034 15.1926C21.675 14.8851 21.4863 14.6063 21.2485 14.3727C21.0107 14.1392 20.7286 13.9555 20.4188 13.8326C20.109 13.7096 19.7778 13.6498 19.4445 13.6568C19.1113 13.6637 18.7828 13.7373 18.4784 13.873C18.174 14.0088 17.8998 14.204 17.6719 14.4473C17.4441 14.6906 17.2672 14.9769 17.1516 15.2896C17.0361 15.6022 16.9842 15.9348 16.9991 16.2678C16.5093 16.3937 16.0545 16.6295 15.6693 16.9572C15.2841 17.2849 14.9785 17.696 14.7756 18.1593C14.5728 18.6226 14.4781 19.126 14.4986 19.6314C14.5191 20.1367 14.6544 20.6308 14.8941 21.0761C14.4726 21.4186 14.1411 21.8588 13.9286 22.3586C13.716 22.8583 13.6287 23.4024 13.6744 23.9436C13.7201 24.4848 13.8973 25.0066 14.1906 25.4636C14.4839 25.9207 14.8845 26.2992 15.3574 26.5661C15.299 27.018 15.3339 27.477 15.4598 27.9149C15.5858 28.3528 15.8002 28.7601 16.0898 29.1119C16.3793 29.4637 16.7379 29.7523 17.1435 29.9601C17.549 30.1678 17.9928 30.2902 18.4474 30.3197C18.9021 30.3492 19.358 30.2852 19.7869 30.1316C20.2159 29.978 20.6088 29.7381 20.9414 29.4267C21.274 29.1154 21.5392 28.7391 21.7207 28.3212C21.9022 27.9033 21.9961 27.4526 21.9966 26.9969V16.1636Z" stroke="white" stroke-width="1.66667" stroke-linecap="round" stroke-linejoin="round"/>
<path d="M21.9966 16.1636C21.9956 15.8303 22.0613 15.5002 22.1898 15.1926C22.3182 14.8851 22.5069 14.6063 22.7447 14.3727C22.9825 14.1392 23.2646 13.9555 23.5744 13.8326C23.8842 13.7096 24.2154 13.6498 24.5487 13.6568C24.8819 13.6637 25.2104 13.7373 25.5148 13.873C25.8192 14.0088 26.0934 14.204 26.3213 14.4473C26.5491 14.6906 26.726 14.9769 26.8416 15.2896C26.9571 15.6022 27.009 15.9348 26.9941 16.2678C27.4839 16.3937 27.9387 16.6295 28.3239 16.9572C28.7091 17.2849 29.0147 17.696 29.2176 18.1593C29.4204 18.6226 29.5151 19.126 29.4946 19.6314C29.4741 20.1367 29.3388 20.6308 29.0991 21.0761C29.5206 21.4186 29.8521 21.8588 30.0646 22.3586C30.2772 22.8583 30.3645 23.4024 30.3188 23.9436C30.2731 24.4848 30.0959 25.0066 29.8026 25.4636C29.5093 25.9207 29.1087 26.2992 28.6358 26.5661C28.6942 27.018 28.6593 27.477 28.5334 27.9149C28.4074 28.3528 28.193 28.7601 27.9034 29.1119C27.6139 29.4637 27.2553 29.7523 26.8497 29.9601C26.4442 30.1678 26.0004 30.2902 25.5458 30.3197C25.0911 30.3492 24.6352 30.2852 24.2063 30.1316C23.7773 29.978 23.3844 29.7381 23.0518 29.4267C22.7192 29.1154 22.4539 28.7391 22.2725 28.3212C22.091 27.9033 21.9971 27.4526 21.9966 26.9969V16.1636Z" stroke="white" stroke-width="1.66667" stroke-linecap="round" stroke-linejoin="round"/>
<path d="M24.4966 22.8294C23.797 22.5833 23.186 22.1353 22.741 21.5419C22.296 20.9486 22.037 20.2367 21.9966 19.4961C21.9562 20.2367 21.6971 20.9486 21.2521 21.5419C20.8071 22.1353 20.1962 22.5833 19.4966 22.8294" stroke="white" stroke-width="1.66667" stroke-linecap="round" stroke-linejoin="round"/>
<path d="M26.6626 17.4134C26.8643 17.0639 26.9784 16.6708 26.9951 16.2676" stroke="white" stroke-width="1.66667" stroke-linecap="round" stroke-linejoin="round"/>
<path d="M16.999 16.2676C17.0155 16.6707 17.1293 17.0638 17.3307 17.4134" stroke="white" stroke-width="1.66667" stroke-linecap="round" stroke-linejoin="round"/>
<path d="M14.894 21.0761C15.0465 20.9519 15.2096 20.8415 15.3815 20.7461" stroke="white" stroke-width="1.66667" stroke-linecap="round" stroke-linejoin="round"/>
<path d="M28.6113 20.7461C28.7832 20.8415 28.9464 20.9519 29.0988 21.0761" stroke="white" stroke-width="1.66667" stroke-linecap="round" stroke-linejoin="round"/>
<path d="M16.9966 26.9964C16.4223 26.9967 15.8576 26.8486 15.3574 26.5664" stroke="white" stroke-width="1.66667" stroke-linecap="round" stroke-linejoin="round"/>
<path d="M28.6357 26.5664C28.1355 26.8486 27.5709 26.9967 26.9966 26.9964" stroke="white" stroke-width="1.66667" stroke-linecap="round" stroke-linejoin="round"/>
</g>
<defs>
<clipPath id="clip0_699_70699">
<rect width="20" height="20" fill="white" transform="translate(11.9966 11.9961)"/>
</clipPath>
</defs>
</svg>
