<svg width="44" height="44" viewBox="0 0 44 44" fill="none" xmlns="http://www.w3.org/2000/svg">
<path d="M0 10C0 4.47716 4.47715 0 10 0H33.9931C39.5159 0 43.9931 4.47715 43.9931 10V33.9931C43.9931 39.5159 39.5159 43.9931 33.9931 43.9931H10C4.47716 43.9931 0 39.5159 0 33.9931V10Z" fill="#E17100"/>
<path d="M25.33 29.4961V27.8294C25.33 26.9454 24.9788 26.0975 24.3537 25.4724C23.7286 24.8473 22.8807 24.4961 21.9967 24.4961H16.9967C16.1126 24.4961 15.2648 24.8473 14.6396 25.4724C14.0145 26.0975 13.6633 26.9454 13.6633 27.8294V29.4961" stroke="white" stroke-width="1.66667" stroke-linecap="round" stroke-linejoin="round"/>
<path d="M19.4967 21.1628C21.3376 21.1628 22.83 19.6704 22.83 17.8294C22.83 15.9885 21.3376 14.4961 19.4967 14.4961C17.6557 14.4961 16.1633 15.9885 16.1633 17.8294C16.1633 19.6704 17.6557 21.1628 19.4967 21.1628Z" stroke="white" stroke-width="1.66667" stroke-linecap="round" stroke-linejoin="round"/>
<path d="M30.3298 29.4952V27.8285C30.3293 27.09 30.0835 26.3725 29.631 25.7888C29.1785 25.2051 28.5449 24.7882 27.8298 24.6035" stroke="white" stroke-width="1.66667" stroke-linecap="round" stroke-linejoin="round"/>
<path d="M25.3298 14.6035C26.0468 14.7871 26.6824 15.2041 27.1362 15.7888C27.59 16.3734 27.8364 17.0925 27.8364 17.8327C27.8364 18.5728 27.59 19.2919 27.1362 19.8766C26.6824 20.4613 26.0468 20.8783 25.3298 21.0618" stroke="white" stroke-width="1.66667" stroke-linecap="round" stroke-linejoin="round"/>
</svg>
