<svg width="44" height="44" viewBox="0 0 44 44" fill="none" xmlns="http://www.w3.org/2000/svg">
<path d="M0 10C0 4.47716 4.47715 0 10 0H33.9931C39.5159 0 43.9931 4.47715 43.9931 10V33.9931C43.9931 39.5159 39.5159 43.9931 33.9931 43.9931H10C4.47716 43.9931 0 39.5159 0 33.9931V10Z" fill="#00B96B"/>
<g clip-path="url(#clip0_699_67403)">
<path d="M30.33 21.9964H28.2633C27.8991 21.9956 27.5447 22.1142 27.2543 22.3339C26.9638 22.5536 26.7533 22.8624 26.655 23.2131L24.6967 30.1798C24.684 30.223 24.6577 30.261 24.6217 30.2881C24.5856 30.3151 24.5417 30.3298 24.4967 30.3298C24.4516 30.3298 24.4077 30.3151 24.3717 30.2881C24.3356 30.261 24.3093 30.223 24.2967 30.1798L19.6967 13.8131C19.684 13.7698 19.6577 13.7318 19.6217 13.7048C19.5856 13.6777 19.5417 13.6631 19.4967 13.6631C19.4516 13.6631 19.4077 13.6777 19.3717 13.7048C19.3356 13.7318 19.3093 13.7698 19.2967 13.8131L17.3383 20.7798C17.2404 21.129 17.0311 21.4368 16.7424 21.6564C16.4536 21.876 16.1011 21.9954 15.7383 21.9964H13.6633" stroke="white" stroke-width="1.66667" stroke-linecap="round" stroke-linejoin="round"/>
</g>
<defs>
<clipPath id="clip0_699_67403">
<rect width="20" height="20" fill="white" transform="translate(11.9966 11.9961)"/>
</clipPath>
</defs>
</svg>
