<svg width="48" height="48" viewBox="0 0 48 48" fill="none" xmlns="http://www.w3.org/2000/svg">
<path d="M0 10C0 4.47716 4.47715 0 10 0H37.9861C43.509 0 47.9861 4.47715 47.9861 10V37.9861C47.9861 43.509 43.509 47.9861 37.9861 47.9861H10C4.47716 47.9861 0 43.509 0 37.9861V10Z" fill="url(#paint0_linear_699_93358)"/>
<path d="M23.9927 18.9941V32.9901" stroke="white" stroke-width="1.99942" stroke-linecap="round" stroke-linejoin="round"/>
<path d="M14.9953 29.9918C14.7302 29.9918 14.4759 29.8864 14.2884 29.6989C14.1009 29.5115 13.9956 29.2572 13.9956 28.992V15.9958C13.9956 15.7307 14.1009 15.4764 14.2884 15.2889C14.4759 15.1014 14.7302 14.9961 14.9953 14.9961H19.9939C21.0544 14.9961 22.0716 15.4174 22.8215 16.1673C23.5714 16.9173 23.9927 17.9344 23.9927 18.9949C23.9927 17.9344 24.414 16.9173 25.1639 16.1673C25.9139 15.4174 26.931 14.9961 27.9916 14.9961H32.9901C33.2552 14.9961 33.5095 15.1014 33.697 15.2889C33.8845 15.4764 33.9898 15.7307 33.9898 15.9958V28.992C33.9898 29.2572 33.8845 29.5115 33.697 29.6989C33.5095 29.8864 33.2552 29.9918 32.9901 29.9918H26.9918C26.1964 29.9918 25.4336 30.3077 24.8711 30.8702C24.3087 31.4326 23.9927 32.1955 23.9927 32.9909C23.9927 32.1955 23.6767 31.4326 23.1143 30.8702C22.5518 30.3077 21.789 29.9918 20.9936 29.9918H14.9953Z" stroke="white" stroke-width="1.99942" stroke-linecap="round" stroke-linejoin="round"/>
<defs>
<linearGradient id="paint0_linear_699_93358" x1="0" y1="0" x2="47.9861" y2="47.9861" gradientUnits="userSpaceOnUse">
<stop stop-color="#F6339A"/>
<stop offset="1" stop-color="#E60076"/>
</linearGradient>
</defs>
</svg>
