<svg width="44" height="44" viewBox="0 0 44 44" fill="none" xmlns="http://www.w3.org/2000/svg">
<path d="M0 10C0 4.47716 4.47715 0 10 0H33.9931C39.5159 0 43.9931 4.47715 43.9931 10V33.9931C43.9931 39.5159 39.5159 43.9931 33.9931 43.9931H10C4.47716 43.9931 0 39.5159 0 33.9931V10Z" fill="#155DFC"/>
<g clip-path="url(#clip0_699_70656)">
<path d="M24.4967 13.6621H19.4967C19.0364 13.6621 18.6633 14.0352 18.6633 14.4954V16.1621C18.6633 16.6223 19.0364 16.9954 19.4967 16.9954H24.4967C24.9569 16.9954 25.33 16.6223 25.33 16.1621V14.4954C25.33 14.0352 24.9569 13.6621 24.4967 13.6621Z" stroke="white" stroke-width="1.66667" stroke-linecap="round" stroke-linejoin="round"/>
<path d="M25.3298 15.3301H26.9965C27.4385 15.3301 27.8625 15.5057 28.175 15.8182C28.4876 16.1308 28.6632 16.5547 28.6632 16.9967V28.6634C28.6632 29.1054 28.4876 29.5294 28.175 29.8419C27.8625 30.1545 27.4385 30.3301 26.9965 30.3301H16.9965C16.5545 30.3301 16.1305 30.1545 15.818 29.8419C15.5054 29.5294 15.3298 29.1054 15.3298 28.6634V16.9967C15.3298 16.5547 15.5054 16.1308 15.818 15.8182C16.1305 15.5057 16.5545 15.3301 16.9965 15.3301H18.6632" stroke="white" stroke-width="1.66667" stroke-linecap="round" stroke-linejoin="round"/>
<path d="M19.4966 23.6628L21.1632 25.3294L24.4966 21.9961" stroke="white" stroke-width="1.66667" stroke-linecap="round" stroke-linejoin="round"/>
</g>
<defs>
<clipPath id="clip0_699_70656">
<rect width="20" height="20" fill="white" transform="translate(11.9966 11.9961)"/>
</clipPath>
</defs>
</svg>
