<svg width="44" height="44" viewBox="0 0 44 44" fill="none" xmlns="http://www.w3.org/2000/svg">
<path d="M0 10C0 4.47716 4.47715 0 10 0H33.9931C39.5159 0 43.9931 4.47715 43.9931 10V33.9931C43.9931 39.5159 39.5159 43.9931 33.9931 43.9931H10C4.47716 43.9931 0 39.5159 0 33.9931V10Z" fill="#00A63E"/>
<g clip-path="url(#clip0_699_38609)">
<path d="M30.1642 20.3302C30.5447 22.1979 30.2735 24.1397 29.3957 25.8316C28.5179 27.5236 27.0866 28.8635 25.3404 29.6279C23.5943 30.3923 21.6389 30.535 19.8002 30.0321C17.9616 29.5293 16.351 28.4113 15.2369 26.8647C14.1228 25.318 13.5726 23.4362 13.6781 21.533C13.7835 19.6298 14.5382 17.8202 15.8164 16.4061C17.0945 14.992 18.8188 14.0588 20.7017 13.7622C22.5846 13.4655 24.5123 13.8234 26.1633 14.776" stroke="white" stroke-width="1.66667" stroke-linecap="round" stroke-linejoin="round"/>
<path d="M19.4966 21.1629L21.9966 23.6629L30.3299 15.3296" stroke="white" stroke-width="1.66667" stroke-linecap="round" stroke-linejoin="round"/>
</g>
<defs>
<clipPath id="clip0_699_38609">
<rect width="20" height="20" fill="white" transform="translate(11.9966 11.9966)"/>
</clipPath>
</defs>
</svg>
