<svg width="44" height="44" viewBox="0 0 44 44" fill="none" xmlns="http://www.w3.org/2000/svg">
<path d="M0 10C0 4.47716 4.47715 0 10 0H33.9931C39.5159 0 43.9931 4.47715 43.9931 10V33.9931C43.9931 39.5159 39.5159 43.9931 33.9931 43.9931H10C4.47716 43.9931 0 39.5159 0 33.9931V10Z" fill="#E17100"/>
<g clip-path="url(#clip0_699_67415)">
<path d="M21.9964 30.3298C26.5988 30.3298 30.3298 26.5988 30.3298 21.9964C30.3298 17.394 26.5988 13.6631 21.9964 13.6631C17.394 13.6631 13.6631 17.394 13.6631 21.9964C13.6631 26.5988 17.394 30.3298 21.9964 30.3298Z" stroke="white" stroke-width="1.66667" stroke-linecap="round" stroke-linejoin="round"/>
<path d="M21.9966 16.9961V21.9961L25.3299 23.6628" stroke="white" stroke-width="1.66667" stroke-linecap="round" stroke-linejoin="round"/>
</g>
<defs>
<clipPath id="clip0_699_67415">
<rect width="20" height="20" fill="white" transform="translate(11.9966 11.9961)"/>
</clipPath>
</defs>
</svg>
